<svg width="1200" height="470" viewBox="0 0 1200 470" xmlns="http://www.w3.org/2000/svg"><defs><linearGradient id="b" x2="1" y2="1"><stop stop-color="#060B14"/><stop offset="1" stop-color="#0A1C29"/></linearGradient><filter id="g"><feGaussianBlur stdDeviation="4" result="x"/><feMerge><feMergeNode in="x"/><feMergeNode in="SourceGraphic"/></feMerge></filter><style>.m{font-family:ui-monospace,SFMono-Regular,Menlo,Consolas,monospace}.h{fill:#e8f8fa}.s{fill:#7899a6}.c{fill:#7ce7f7}.gr{fill:#63f5a6}.l{stroke:#3e9daf;stroke-width:2;fill:none}</style></defs><rect width="1200" height="470" rx="20" fill="url(#b)"/><text x="42" y="42" class="m s" font-size="13">ARCHITECTURE BLUEPRINT // SERVICE-ORIENTED PRODUCTION SYSTEM</text><g class="m" text-anchor="middle"><g transform="translate(60 88)"><rect width="190" height="70" rx="12" fill="#102733" stroke="#347484"/><text x="95" y="31" class="c" font-size="13">CLIENT LAYER</text><text x="95" y="52" class="s" font-size="11">React · Next.js · Svelte</text></g><g transform="translate(340 88)"><rect width="190" height="70" rx="12" fill="#102733" stroke="#347484"/><text x="95" y="31" class="c" font-size="13">EDGE / API</text><text x="95" y="52" class="s" font-size="11">Nginx · REST · Auth</text></g><g transform="translate(620 88)"><rect width="190" height="70" rx="12" fill="#102733" stroke="#347484"/><text x="95" y="31" class="c" font-size="13">SERVICE LAYER</text><text x="95" y="52" class="s" font-size="11">FastAPI · Laravel · Node</text></g><g transform="translate(900 88)"><rect width="190" height="70" rx="12" fill="#102733" stroke="#347484"/><text x="95" y="31" class="c" font-size="13">ASYNC PLANE</text><text x="95" y="52" class="s" font-size="11">Redis · MQTT · Workers</text></g><g transform="translate(200 260)"><rect width="220" height="72" rx="12" fill="#102733" stroke="#347484"/><text x="110" y="31" class="c" font-size="13">DATA</text><text x="110" y="53" class="s" font-size="11">Postgres · MySQL · MongoDB</text></g><g transform="translate(490 260)"><rect width="220" height="72" rx="12" fill="#102733" stroke="#63f5a6"/><text x="110" y="31" class="gr" font-size="13">RUNTIME</text><text x="110" y="53" class="s" font-size="11">Docker · Linux · Containers</text></g><g transform="translate(780 260)"><rect width="220" height="72" rx="12" fill="#102733" stroke="#347484"/><text x="110" y="31" class="c" font-size="13">CLOUD / DELIVERY</text><text x="110" y="53" class="s" font-size="11">AWS · Terraform · CI/CD</text></g></g><path d="M250 123H340M530 123H620M810 123H900M995 158V210H890V260M715 158V210H600V260M435 158V210H310V260M420 296H490M710 296H780" class="l" opacity=".55" stroke-dasharray="7 8"><animate attributeName="stroke-dashoffset" values="30;0" dur="1.1s" repeatCount="indefinite"/></path><circle r="6" class="gr" filter="url(#g)"><animateMotion path="M250 123H995V210H890V296H310" dur="5.5s" repeatCount="indefinite"/></circle><circle r="5" class="c" filter="url(#g)"><animateMotion path="M530 123H715V210H600V296H890" dur="4.1s" repeatCount="indefinite"/></circle><g transform="translate(42 385)" class="m"><text class="s" font-size="11">ARCHITECTURE PRINCIPLES</text><text y="29" class="h" font-size="13">clear contracts  /  replaceable services  /  observable runtime  /  automated delivery  /  boring production</text><rect y="49" width="1080" height="5" rx="2" fill="#14323e"/><rect y="49" width="800" height="5" rx="2" class="gr"><animate attributeName="width" values="180;1060;620;950;800" dur="4s" repeatCount="indefinite"/></rect></g></svg>