<svg width="1200" height="300" viewBox="0 0 1200 300" xmlns="http://www.w3.org/2000/svg"><defs><linearGradient id="b" x2="1" y2="1"><stop stop-color="#081522"/><stop offset="1" stop-color="#0B202B"/></linearGradient><filter id="g"><feGaussianBlur stdDeviation="4" result="x"/><feMerge><feMergeNode in="x"/><feMergeNode in="SourceGraphic"/></feMerge></filter><style>.m{font-family:ui-monospace,SFMono-Regular,Menlo,Consolas,monospace}.t{fill:#dff7fa}.s{fill:#7f9faa}.c{fill:#7ce7f7}.gr{fill:#63f5a6}</style></defs><rect width="1200" height="300" rx="20" fill="url(#b)"/><text x="42" y="42" class="m s" font-size="13">INDUSTRIAL DATA PLANE // LIVE</text><g class="m" font-size="12" text-anchor="middle"><g transform="translate(40 95)"><rect width="150" height="82" rx="12" fill="#102a35" stroke="#347484"/><text x="75" y="34" class="c">01 // CAPTURE</text><text x="75" y="57" class="s">Zivid RGB + Depth</text></g><g transform="translate(235 95)"><rect width="150" height="82" rx="12" fill="#102a35" stroke="#347484"/><text x="75" y="34" class="c">02 // DETECT</text><text x="75" y="57" class="s">Parts + Box</text></g><g transform="translate(430 95)"><rect width="150" height="82" rx="12" fill="#102a35" stroke="#347484"/><text x="75" y="34" class="c">03 // POSE</text><text x="75" y="57" class="s">Raw → Refined</text></g><g transform="translate(625 95)"><rect width="150" height="82" rx="12" fill="#102a35" stroke="#347484"/><text x="75" y="34" class="c">04 // GRASP</text><text x="75" y="57" class="s">Planning</text></g><g transform="translate(820 95)"><rect width="150" height="82" rx="12" fill="#102a35" stroke="#347484"/><text x="75" y="34" class="c">05 // API</text><text x="75" y="57" class="s">FastAPI + Redis</text></g><g transform="translate(1015 95)"><rect width="145" height="82" rx="12" fill="#102a35" stroke="#63f5a6"/><text x="72" y="34" class="gr">06 // VISUALIZE</text><text x="72" y="57" class="s">Browser 3D</text></g></g><path d="M190 136H235M385 136H430M580 136H625M775 136H820M970 136H1015" stroke="#4fc9db" stroke-width="2" stroke-dasharray="7 8"><animate attributeName="stroke-dashoffset" values="30;0" dur="1s" repeatCount="indefinite"/></path><circle r="6" fill="#63f5a6" filter="url(#g)"><animateMotion path="M190 136H1015" dur="4s" repeatCount="indefinite"/></circle><text x="42" y="235" class="m s" font-size="12">EVENT STREAM</text><text x="155" y="235" class="m gr" font-size="12">● HEALTHY</text><text x="42" y="263" class="m t" font-size="13">physical world → perception → services → decision → human-readable state</text></svg>